<?xml version="1.0" encoding="UTF-8"?>
<svg id="Layer_1" width="40" height="40" data-name="Layer 1" xmlns="http://www.w3.org/2000/svg" viewBox="0 0 2080 2080">
  <defs>
    <style>
      .cls-1 {
        fill: #fff;
        stroke-width: 0px;
      }
    </style>
  </defs>
  <path class="cls-1" d="M1391.61,534.01c11.53.86,23.07,1.72,34.6,2.56,5.58.41,9.92,3.11,14.13,6.69,11.73,9.98,14.93,21.3,9.79,35.85-16.85,47.7-33.64,95.42-50.49,143.12-16.73,47.37-33.48,94.72-50.24,142.08-4.02,11.37-8.26,22.67-12.04,34.12-1.05,3.16-2.66,4.47-5.75,5.17-20,4.55-40.07,8.88-59.92,14.02-29.78,7.71-57.32,20.46-82.76,37.89-15.98,10.95-30.23,23.45-40.16,40.29-9.25,15.71-16.4,32.45-17.89,50.65-1.83,22.48,6.66,32.52,25.12,39.21,18.73,6.79,37.91,7.07,57.25,2.89,22.85-4.93,44.75-3.36,64.87,9.68,13.02,8.44,22.84,19.94,30.89,33.09,8.84,14.45,13.81,30.4,18.77,46.44,4.97,16.09,10.62,31.98,16.45,47.78,7.95,21.53,16.34,42.9,24.58,64.32,9.69,25.19,19.45,50.35,29.14,75.55,10.62,27.61,21.24,55.23,31.77,82.87,5.03,13.19,2.96,25.35-5.66,32.74-6.62,5.68-14.72,8.59-23.19,9.24-30.77,2.36-61.41.92-91.62-5.58-15.55-3.34-30.48-8.56-43.01-19.12-8.61-7.25-14.26-16.37-18.47-26.6-16.11-39.13-32.17-78.29-48.43-117.36-4.48-10.78-8.85-21.72-14.58-31.84-13.11-23.14-34.05-34.84-59.88-38.9-23.92-3.77-48-3.05-72.06-3.31-23.24-.26-46.5-.11-69.71-1.12-17.85-.77-34.02-6.89-47.17-19.65-11.48-11.13-17.88-24.84-19.82-40.51-2.93-23.71,2.36-45.84,13.14-67.04,18.73-36.83,37.84-73.46,59.05-108.93,17.76-29.68,35.67-59.28,53.96-88.64,20.34-32.65,41.04-65.07,61.83-97.44,18.83-29.32,37.93-58.46,57.05-87.6,14.55-22.17,29.34-44.18,43.94-66.32,13.6-20.62,27.12-41.29,40.62-61.97,16.86-25.85,39.02-45.48,67.4-57.93,25.01-10.98,51.06-16.63,78.48-16.43Z"/>
  <path class="cls-1" d="M805.16,714.67c2.32,3.61,5.06,7.02,6.89,10.86,4.94,10.34,6.13,21.67,7.83,32.83,2.75,18.07,3.81,36.28,2.81,54.52-.82,15.02-1.09,30.29-6.89,44.47-2.47,6.05-6.1,11.78-10,17.06-9.29,12.61-10.59,26.1-5.98,40.65,3.7,11.66,9.55,22.21,16.65,32.05,2.22,3.07,5.35,5.65,8.47,7.89,19.47,14,32.68,32.16,35.85,56.25,1.52,11.55,1.31,23.38,1.32,35.08.06,111.37,0,222.74-.03,334.11,0,16.3-2.13,32.22-10.27,46.67-14,24.86-35.14,39.52-63.6,43.01-26.25,3.22-49.24-4.36-68.29-22.59-17.21-16.48-26.13-36.72-25.65-60.93.3-15.14-.14-30.3-.14-45.45,0-12.91.22-25.82.22-38.72,0-17.01-.13-34.02-.16-51.02-.02-14.82.06-29.64.03-44.46-.03-17.92-.2-35.84-.18-53.75.01-15.11.27-30.22.31-45.33.03-14.42-.14-28.84-.12-43.26.01-15.52-.36-31.06.32-46.56.97-22.13,9.81-41.28,27.05-55,9.84-7.83,12.65-17,13.84-28.38,1.41-13.54,3.55-27.05,6.22-40.41,2.3-11.55,8.05-21.8,16.29-30.16,24.75-25.13,37.73-55.74,41.93-90.19,2.11-17.27,2.42-34.75,3.54-52.14.14-2.17.25-4.34.37-6.52l1.35-.56Z"/>
  <path class="cls-1" d="M1036.92,1466.15c-46.94.55-85.37-37.29-85.01-86.01.33-45.37,38.07-82.22,85.14-82.29,45.85-.07,83.79,38.36,82.99,85.13-.81,47.92-39.64,83.25-83.12,83.17Z"/>
  <path class="cls-1" d="M813.63,536.8c6.87-.28,11.38,3.96,16.53,6.54,3.7,1.86,7.09,4.34,10.69,6.41,4.02,2.3,6.33,5.69,6.95,10.23,1.46,10.79,1.89,21.58-1.42,32.11-1.12,3.56-3.22,6.81-5.37,10-3.5-14.84-10.76-27.51-17.76-40.38-3.8-7-6.32-14.69-9.35-22.1-.32-.77-.19-1.72-.28-2.81Z"/>
  <path class="cls-1" d="M922.07,1533.63c6.61,8.43,13.08,16.69,19.84,25.31-4.28.76-7.32.57-9.99-3.24-4.31-6.15-9.31-11.81-14.07-17.72-8.09,4.79-12.93,10.94-9.88,21.02h-6.31v-60.6h5.73v40.65c2.26-1.92,4.03-3.32,5.68-4.85,5.53-5.12,11.04-10.27,16.51-15.45,4.05-3.84,4.02-3.87,10.14-2.86-5.9,5.94-11.71,11.78-17.65,17.75Z"/>
  <path class="cls-1" d="M1058.1,1498.41h5.74v40.68c2.29-1.93,4.06-3.31,5.71-4.83,5.44-5.04,11.04-9.95,16.17-15.29,3.05-3.17,6.24-4.26,10.26-3.29-5.71,5.83-11.46,11.69-17.46,17.82,6.64,8.5,13.14,16.84,19.86,25.44-4.42.87-7.45.3-10.08-3.43-4.26-6.05-9.19-11.63-14.26-17.94-3.18,2.99-7.3,5.37-9.03,8.91-1.72,3.53-1.05,8.24-1.44,12.57h-5.48v-60.65Z"/>
  <path class="cls-1" d="M1049.4,1539.61h-35.8c.21,6.17,3.09,10.28,7.94,12.73,7.76,3.92,15.1,2.69,22.11-3.16,1,1.07,2.02,2.16,3.02,3.23-5.61,7.49-18.86,9.66-27.77,4.67-9.85-5.51-14.05-17.2-10.04-27.93,3.77-10.08,13.67-15.56,24.05-13.33,10.86,2.34,17.37,11.58,16.48,23.79ZM1043.6,1534.85c-.32-8.38-6.53-14.11-14.88-14.14-8.51-.03-14.62,5.71-14.92,14.14h29.8Z"/>
  <path class="cls-1" d="M980.2,1559.14h-5.31c-.09-1.85-.17-3.58-.27-5.7-6.58,6.56-14.02,7.58-22.11,4.99-5.84-1.87-8.63-6.45-8.31-12.98.26-5.17,3.72-9.36,9.41-10.38,4.06-.73,8.26-.67,12.41-.85,2.71-.12,5.44-.02,8.11-.02,1.34-7.99-2.5-12.96-10.1-13.43-6.36-.39-9.89.62-15.73,4.48-3.64-3.58-3.64-4.08.8-6.43,6.31-3.34,13-4.45,19.99-2.62,6.69,1.75,10.77,6.11,11.03,12.95.38,9.87.1,19.76.1,29.99ZM974.24,1538.66c-6.02.31-12.1.48-18.15.97-3.98.32-5.84,3.06-6.24,6.8-.34,3.19,1.99,7.11,5.45,7.56,3.97.52,8.44.71,12.1-.59,6.15-2.19,8.03-7.57,6.83-14.74Z"/>
  <path class="cls-1" d="M1136.75,1559.15h-5.34c-.09-1.84-.17-3.56-.28-5.9-5.11,5.52-11.01,7.01-17.68,6.13-8.61-1.13-12.91-5.6-12.73-13.27.16-6.82,5.08-11.34,13.36-11.78,5.45-.29,10.92-.05,16.31-.05,1.9-6.95-1.84-12.62-8.56-13.38-6.27-.71-11.24.55-17.59,4.59-.79-1.29-1.57-2.58-2.52-4.14,7.83-5.65,16.18-7.5,25.35-4.71,6.27,1.91,9.35,6.72,9.59,12.88.38,9.74.1,19.5.1,29.63ZM1122.05,1538.94c0-.1-.02-.19-.03-.29-3.22.32-6.45.53-9.65,1-3.3.49-5.41,2.54-5.92,5.82-.53,3.41.85,6.1,3.86,7.86,6.7,3.92,16.84.85,20.15-6.1,2.53-5.31.77-8.3-4.91-8.29-1.17,0-2.34,0-3.52,0Z"/>
  <path class="cls-1" d="M993.15,1498.33h5.66v60.74h-5.66v-60.74Z"/>
  <path class="cls-1" d="M1155.55,1559.15h-5.85v-43.46h5.58v7.9c4.21-6.14,9.4-8.1,15.8-8.13v5.29c-4.63.19-9.51.76-11.96,5.03-1.9,3.32-3,7.37-3.43,11.21-.57,5.14-.14,10.39-.14,15.59,0,2.06,0,4.12,0,6.57Z"/>
  <path class="cls-1" d="M1198.16,1575.52v-84.16c.27,0,.53,0,.8,0v84.16c-.27,0-.53,0-.8,0Z"/>
  <path class="cls-1" d="M1181.3,1550.28c.75,1.07,2.66,2.66,2.97,4.52.46,2.73-1.53,4.67-4.36,4.74-2.73.07-4.09-1.64-4.16-4.42-.08-2.99,1.31-4.59,5.55-4.83Z"/>
</svg>